<svg width="41" height="41" viewBox="0 0 41 41" fill="none" xmlns="http://www.w3.org/2000/svg">
<g clip-path="url(#clip0_11_301)">
<path d="M23.0625 2.5625C23.0625 1.14512 21.9174 0 20.5 0C19.0826 0 17.9375 1.14512 17.9375 2.5625V21.9975L12.0598 16.1197C11.0588 15.1188 9.4332 15.1188 8.43223 16.1197C7.43125 17.1207 7.43125 18.7463 8.43223 19.7473L18.6822 29.9973C19.6832 30.9982 21.3088 30.9982 22.3098 29.9973L32.5598 19.7473C33.5607 18.7463 33.5607 17.1207 32.5598 16.1197C31.5588 15.1188 29.9332 15.1188 28.9322 16.1197L23.0625 21.9975V2.5625ZM5.125 28.1875C2.29824 28.1875 0 30.4857 0 33.3125V35.875C0 38.7018 2.29824 41 5.125 41H35.875C38.7018 41 41 38.7018 41 35.875V33.3125C41 30.4857 38.7018 28.1875 35.875 28.1875H27.7471L24.1195 31.815C22.1176 33.817 18.8744 33.817 16.8725 31.815L13.2529 28.1875H5.125ZM34.5938 36.5156C33.5287 36.5156 32.6719 35.6588 32.6719 34.5938C32.6719 33.5287 33.5287 32.6719 34.5938 32.6719C35.6588 32.6719 36.5156 33.5287 36.5156 34.5938C36.5156 35.6588 35.6588 36.5156 34.5938 36.5156Z" fill="white"/>
</g>
<defs>
<clipPath id="clip0_11_301">
<rect width="41" height="41" fill="white"/>
</clipPath>
</defs>
</svg>
