<svg width="40" height="41" viewBox="0 0 40 41" fill="none" xmlns="http://www.w3.org/2000/svg">
<path d="M20 20.5C16.8571 20.5 14.2857 23.1357 14.2857 26.3571C14.2857 29.5786 16.8571 32.2143 20 32.2143C23.1429 32.2143 25.7143 29.5786 25.7143 26.3571C25.7143 23.1357 23.1429 20.5 20 20.5ZM38.6696 8.88638L31.1786 1.20804C30.4554 0.46308 29.3571 0 28.2232 0H5.71429C2.55804 0 0 2.62199 0 5.85714V35.1429C0 38.378 2.55804 41 5.71429 41H34.2857C37.442 41 40 38.378 40 35.1429V12.0712C40 10.9089 39.5446 9.78326 38.6696 8.88638ZM11.4286 4.39286H24.2857V11.7143H11.4286V4.39286ZM35.7143 35.1429C35.7143 35.9515 35.0746 36.6071 34.2857 36.6071H5.71429C4.92536 36.6071 4.28571 35.9515 4.28571 35.1429V5.85714C4.28571 5.04831 4.92536 4.39286 5.71429 4.39286H7.14286V13.9107C7.14286 15.1233 8.10268 16.1071 9.28571 16.1071H26.4286C27.6161 16.1071 28.5714 15.1279 28.5714 13.9107V4.74795L35.558 11.9092C35.6607 12.0071 35.7143 12.1536 35.7143 12.2908V35.1429Z" fill="white"/>
</svg>
