<svg width="45" height="41" viewBox="0 0 45 41" fill="none" xmlns="http://www.w3.org/2000/svg">
<g clip-path="url(#clip0_11_303)">
<path d="M30 1.92187C30 1.15312 30.4453 0.464446 31.1328 0.160149C31.8203 -0.144148 32.6172 -7.62474e-06 33.1641 0.528508L44.4141 11.4191C44.7891 11.7795 45 12.284 45 12.8125C45 13.341 44.7891 13.8455 44.4141 14.2059L33.1641 25.0965C32.6172 25.625 31.8203 25.7691 31.1328 25.4648C30.4453 25.1605 30 24.4639 30 23.7031V17.9375H27.5H26.3672C22.8516 17.9375 20 20.8603 20 24.4639C20 26.2496 20.8047 27.2105 21.5 27.707C22.0313 28.0834 22.5 28.668 22.5 29.3326C22.5 30.1174 21.875 30.758 21.1094 30.758H20.9141C20.7266 30.758 20.5391 30.726 20.3594 30.6459C18.9688 30.0133 12.5 26.698 12.5 19.2187C12.5 12.8525 17.5391 7.68749 23.75 7.68749H30V1.92187ZM0 11.5312C0 7.99179 2.79688 5.12499 6.25 5.12499H7.5C8.88281 5.12499 10 6.27011 10 7.68749C10 9.10488 8.88281 10.25 7.5 10.25H6.25C5.5625 10.25 5 10.8266 5 11.5312V34.5937C5 35.2984 5.5625 35.875 6.25 35.875H28.75C29.4375 35.875 30 35.2984 30 34.5937V33.3125C30 31.8951 31.1172 30.75 32.5 30.75C33.8828 30.75 35 31.8951 35 33.3125V34.5937C35 38.1332 32.2031 41 28.75 41H6.25C2.79688 41 0 38.1332 0 34.5937V11.5312Z" fill="white"/>
</g>
<defs>
<clipPath id="clip0_11_303">
<rect width="45" height="41" fill="white"/>
</clipPath>
</defs>
</svg>
